<?xml version="1.0" encoding="utf-8"?>
<!-- Generator: Adobe Illustrator 18.0.0, SVG Export Plug-In . SVG Version: 6.00 Build 0)  -->
<!DOCTYPE svg PUBLIC "-//W3C//DTD SVG 1.1//EN" "http://www.w3.org/Graphics/SVG/1.1/DTD/svg11.dtd" [
	<!ENTITY ns_extend "http://ns.adobe.com/Extensibility/1.0/">
	<!ENTITY ns_ai "http://ns.adobe.com/AdobeIllustrator/10.0/">
	<!ENTITY ns_graphs "http://ns.adobe.com/Graphs/1.0/">
	<!ENTITY ns_vars "http://ns.adobe.com/Variables/1.0/">
	<!ENTITY ns_imrep "http://ns.adobe.com/ImageReplacement/1.0/">
	<!ENTITY ns_sfw "http://ns.adobe.com/SaveForWeb/1.0/">
	<!ENTITY ns_custom "http://ns.adobe.com/GenericCustomNamespace/1.0/">
	<!ENTITY ns_adobe_xpath "http://ns.adobe.com/XPath/1.0/">
]>
<svg version="1.1" id="Слой_1" xmlns:x="&ns_extend;" xmlns:i="&ns_ai;" xmlns:graph="&ns_graphs;"
	 xmlns="http://www.w3.org/2000/svg" xmlns:xlink="http://www.w3.org/1999/xlink" x="0px" y="0px" width="128.9px" height="31.8px"
	 viewBox="0 0 128.9 31.8" enable-background="new 0 0 128.9 31.8" xml:space="preserve">
<metadata>
	<sfw  xmlns="&ns_sfw;">
		<slices></slices>
		<sliceSourceBounds  width="128.9" height="31.8" x="-61.7" y="-18.4" bottomLeftOrigin="true"></sliceSourceBounds>
	</sfw>
</metadata>
<g>
	<g>
		<path fill="#2F3587" d="M16.5,8.8c2-1.6,4.1-3,6.1-4.2c-2-1.7-4-3.2-6.1-4.6c-2.1,1.3-4.1,2.9-6.1,4.6C12.5,5.8,14.5,7.2,16.5,8.8
			z"/>
		<path fill="#1172B6" d="M11.6,13.3c1.6-1.6,3.3-3.1,5-4.5c-2-1.6-4.1-3-6.1-4.2c-1.1,1-2.3,2-3.3,3.1c-0.8,0.8-1.6,1.6-2.3,2.5
			c2,1.2,4,2.5,5.9,4.1C11,13.9,11.3,13.6,11.6,13.3z"/>
		<path fill="#30A7DF" d="M5.6,20.2c1.5-2.1,3.2-4.1,5.1-6c-1.9-1.5-3.9-2.9-5.9-4.1c-1.8,2-3.4,4-4.8,6.1
			C1.9,17.4,3.8,18.7,5.6,20.2z"/>
		<path fill="#1172B6" d="M22.4,14.2c1.9-1.5,3.9-2.9,5.9-4.1c-0.7-0.8-1.5-1.7-2.3-2.5c-1.1-1.1-2.2-2.1-3.3-3.1
			c-2.1,1.2-4.1,2.6-6.1,4.2c1.7,1.4,3.4,2.8,5,4.5C21.8,13.6,22.1,13.9,22.4,14.2z"/>
		<path fill="#30A7DF" d="M27.5,20.2c1.8-1.5,3.7-2.8,5.6-4c-1.4-2.1-3-4.1-4.8-6.1c-2,1.2-4,2.5-5.9,4.1
			C24.3,16.1,26,18.2,27.5,20.2z"/>
		<path fill="#6BC3D6" d="M16.5,31.8c1.5-2.1,3.2-4.2,5.1-6.2c-1.5-2.1-3.2-4.1-5.1-6.1c-1.9,2-3.6,4-5.1,6.1
			C13.3,27.6,15,29.6,16.5,31.8z"/>
	</g>
</g>
</svg>
